<?xml version="1.0" encoding="UTF-8"?>
<svg version="1.1" xmlns="http://www.w3.org/2000/svg" width="512" height="512">
<path d="M0 0 C1.41925781 -0.00580078 1.41925781 -0.00580078 2.8671875 -0.01171875 C10.92139082 -0.00056334 18.2912399 0.71601247 26 3.125 C26 3.785 26 4.445 26 5.125 C28.97 5.455 31.94 5.785 35 6.125 C35 6.785 35 7.445 35 8.125 C36.65 8.125 38.3 8.125 40 8.125 C40 8.785 40 9.445 40 10.125 C40.99 10.125 41.98 10.125 43 10.125 C43 10.785 43 11.445 43 12.125 C45.31 12.455 47.62 12.785 50 13.125 C50 13.785 50 14.445 50 15.125 C50.66 15.125 51.32 15.125 52 15.125 C52 15.785 52 16.445 52 17.125 C54.31 17.455 56.62 17.785 59 18.125 C59 18.785 59 19.445 59 20.125 C59.66 20.125 60.32 20.125 61 20.125 C61 20.785 61 21.445 61 22.125 C61.99 22.125 62.98 22.125 64 22.125 C64 22.785 64 23.445 64 24.125 C65.65 24.455 67.3 24.785 69 25.125 C69 25.785 69 26.445 69 27.125 C69.66 27.125 70.32 27.125 71 27.125 C71 27.785 71 28.445 71 29.125 C72.65 29.455 74.3 29.785 76 30.125 C76 30.785 76 31.445 76 32.125 C76.66 32.125 77.32 32.125 78 32.125 C78 32.785 78 33.445 78 34.125 C78.61875 34.2075 79.2375 34.29 79.875 34.375 C82 35.125 82 35.125 83.25 37.1875 C83.4975 37.826875 83.745 38.46625 84 39.125 C84.66 39.125 85.32 39.125 86 39.125 C86 39.785 86 40.445 86 41.125 C87.65 41.455 89.3 41.785 91 42.125 C91 42.785 91 43.445 91 44.125 C91.66 44.125 92.32 44.125 93 44.125 C93 44.785 93 45.445 93 46.125 C93.99 46.455 94.98 46.785 96 47.125 C96 47.785 96 48.445 96 49.125 C96.66 49.125 97.32 49.125 98 49.125 C98 49.785 98 50.445 98 51.125 C98.66 51.125 99.32 51.125 100 51.125 C100 51.785 100 52.445 100 53.125 C100.99 53.455 101.98 53.785 103 54.125 C103 54.785 103 55.445 103 56.125 C103.66 56.125 104.32 56.125 105 56.125 C105 56.785 105 57.445 105 58.125 C105.99 58.455 106.98 58.785 108 59.125 C108 59.785 108 60.445 108 61.125 C108.66 61.125 109.32 61.125 110 61.125 C110 61.785 110 62.445 110 63.125 C110.99 63.455 111.98 63.785 113 64.125 C113 64.785 113 65.445 113 66.125 C113.66 66.125 114.32 66.125 115 66.125 C115 66.785 115 67.445 115 68.125 C115.66 68.125 116.32 68.125 117 68.125 C117 68.785 117 69.445 117 70.125 C117.99 70.455 118.98 70.785 120 71.125 C120 72.445 120 73.765 120 75.125 C121.32 75.455 122.64 75.785 124 76.125 C124.33 77.445 124.66 78.765 125 80.125 C125.66 80.125 126.32 80.125 127 80.125 C127 80.785 127 81.445 127 82.125 C127.66 82.125 128.32 82.125 129 82.125 C129 83.115 129 84.105 129 85.125 C129.66 85.125 130.32 85.125 131 85.125 C132.5078125 86.8046875 132.5078125 86.8046875 134.125 89 C134.66382813 89.71929687 135.20265625 90.43859375 135.7578125 91.1796875 C137 93.125 137 93.125 137 95.125 C137.66 95.125 138.32 95.125 139 95.125 C139 95.785 139 96.445 139 97.125 C139.66 97.125 140.32 97.125 141 97.125 C141.33 98.775 141.66 100.425 142 102.125 C142.66 102.125 143.32 102.125 144 102.125 C144 102.785 144 103.445 144 104.125 C144.66 104.125 145.32 104.125 146 104.125 C146 105.115 146 106.105 146 107.125 C146.66 107.125 147.32 107.125 148 107.125 C148.33 108.775 148.66 110.425 149 112.125 C149.66 112.125 150.32 112.125 151 112.125 C151 112.785 151 113.445 151 114.125 C151.66 114.125 152.32 114.125 153 114.125 C153.33 116.435 153.66 118.745 154 121.125 C154.66 121.125 155.32 121.125 156 121.125 C156 121.785 156 122.445 156 123.125 C156.66 123.125 157.32 123.125 158 123.125 C158 124.115 158 125.105 158 126.125 C158.66 126.125 159.32 126.125 160 126.125 C160.33 127.775 160.66 129.425 161 131.125 C161.66 131.125 162.32 131.125 163 131.125 C166 137.75 166 137.75 166 141.125 C166.66 141.125 167.32 141.125 168 141.125 C168 142.445 168 143.765 168 145.125 C168.66 145.125 169.32 145.125 170 145.125 C173 151.75 173 151.75 173 155.125 C173.66 155.125 174.32 155.125 175 155.125 C175 156.115 175 157.105 175 158.125 C175.66 158.125 176.32 158.125 177 158.125 C177.33 160.435 177.66 162.745 178 165.125 C178.66 165.125 179.32 165.125 180 165.125 C180 166.775 180 168.425 180 170.125 C180.66 170.125 181.32 170.125 182 170.125 C182.33 173.095 182.66 176.065 183 179.125 C183.66 179.125 184.32 179.125 185 179.125 C185 180.775 185 182.425 185 184.125 C185.66 184.125 186.32 184.125 187 184.125 C187 186.435 187 188.745 187 191.125 C187.66 191.125 188.32 191.125 189 191.125 C189.13277344 192.05183594 189.26554687 192.97867188 189.40234375 193.93359375 C189.57894531 195.13113281 189.75554687 196.32867187 189.9375 197.5625 C190.19853516 199.35494141 190.19853516 199.35494141 190.46484375 201.18359375 C190.68985213 204.00455676 190.68985213 204.00455676 192 205.125 C192.32351301 207.96472535 192.5130429 210.80573737 192.71875 213.65625 C192.73385265 216.0663605 192.73385265 216.0663605 194 217.125 C194.08737645 218.97869611 194.10698153 220.83567541 194.09765625 222.69140625 C194.09443359 223.81611328 194.09121094 224.94082031 194.08789062 226.09960938 C194.07951172 227.28361328 194.07113281 228.46761719 194.0625 229.6875 C194.05798828 230.87537109 194.05347656 232.06324219 194.04882812 233.28710938 C194.03699675 236.23312226 194.02051287 239.17903681 194 242.125 C193.34 242.125 192.68 242.125 192 242.125 C192 244.765 192 247.405 192 250.125 C191.34 250.125 190.68 250.125 190 250.125 C189.95101563 250.80046875 189.90203125 251.4759375 189.8515625 252.171875 C189.77679688 253.06390625 189.70203125 253.9559375 189.625 254.875 C189.55539062 255.75671875 189.48578125 256.6384375 189.4140625 257.546875 C189.00149945 260.11566382 188.28839043 261.88341015 187 264.125 C186.34 264.125 185.68 264.125 185 264.125 C184.87625 264.723125 184.7525 265.32125 184.625 265.9375 C184 268.125 184 268.125 182 271.125 C181.34 271.125 180.68 271.125 180 271.125 C180 272.115 180 273.105 180 274.125 C179.34 274.125 178.68 274.125 178 274.125 C177.731875 274.764375 177.46375 275.40375 177.1875 276.0625 C176 278.125 176 278.125 173 279.125 C173 279.785 173 280.445 173 281.125 C172.01 281.125 171.02 281.125 170 281.125 C170 281.785 170 282.445 170 283.125 C169.34 283.125 168.68 283.125 168 283.125 C168 283.785 168 284.445 168 285.125 C165.69 285.455 163.38 285.785 161 286.125 C161 286.785 161 287.445 161 288.125 C160.01 288.125 159.02 288.125 158 288.125 C158 288.785 158 289.445 158 290.125 C154.7 290.455 151.4 290.785 148 291.125 C148 291.785 148 292.445 148 293.125 C142.5235577 294.04758928 137.24706092 294.27135376 131.69921875 294.2578125 C130.82280228 294.25876923 129.9463858 294.25972595 129.04341125 294.26071167 C127.19699023 294.26138918 125.35056677 294.25956493 123.50415039 294.25537109 C120.7064873 294.25003621 117.90898615 294.25532073 115.11132812 294.26171875 C113.30729132 294.26105752 111.50325461 294.25977542 109.69921875 294.2578125 C108.46433968 294.26084885 108.46433968 294.26084885 107.20451355 294.26394653 C101.41989265 294.24108256 95.7450864 293.79107358 90 293.125 C90 292.465 90 291.805 90 291.125 C88.4221875 291.1559375 88.4221875 291.1559375 86.8125 291.1875 C83.67295096 291.13603198 81.03116604 290.85982813 78 290.125 C78 289.465 78 288.805 78 288.125 C76.35 288.125 74.7 288.125 73 288.125 C73 287.465 73 286.805 73 286.125 C72.34773438 286.07601563 71.69546875 286.02703125 71.0234375 285.9765625 C66.06720147 285.55257771 61.66980549 284.96834427 57 283.125 C57 282.465 57 281.805 57 281.125 C56.01 281.125 55.02 281.125 54 281.125 C54 280.465 54 279.805 54 279.125 C50.7 278.795 47.4 278.465 44 278.125 C44 277.465 44 276.805 44 276.125 C42.68 276.125 41.36 276.125 40 276.125 C40 275.465 40 274.805 40 274.125 C39.27554688 274.07601563 38.55109375 274.02703125 37.8046875 273.9765625 C32.58541133 273.57293848 27.90186342 273.11224193 23 271.125 C23 270.465 23 269.805 23 269.125 C7.82 269.125 -7.36 269.125 -23 269.125 C-23 269.785 -23 270.445 -23 271.125 C-24.07121094 271.40214844 -25.14242187 271.67929687 -26.24609375 271.96484375 C-27.64327627 272.33054924 -29.04040915 272.69644446 -30.4375 273.0625 C-31.14455078 273.24490234 -31.85160156 273.42730469 -32.58007812 273.61523438 C-36.07574861 274.30649374 -36.07574861 274.30649374 -39 276.125 C-40.66617115 276.16563832 -42.33388095 276.167721 -44 276.125 C-44 276.785 -44 277.445 -44 278.125 C-46.64 278.455 -49.28 278.785 -52 279.125 C-52 279.785 -52 280.445 -52 281.125 C-53.65 281.125 -55.3 281.125 -57 281.125 C-57 281.785 -57 282.445 -57 283.125 C-58.65 283.125 -60.3 283.125 -62 283.125 C-62 283.785 -62 284.445 -62 285.125 C-64.97 285.455 -67.94 285.785 -71 286.125 C-71 286.785 -71 287.445 -71 288.125 C-73.31 288.125 -75.62 288.125 -78 288.125 C-78 288.785 -78 289.445 -78 290.125 C-82.0527516 291.10748524 -85.83861737 291.20659574 -90 291.125 C-90 291.785 -90 292.445 -90 293.125 C-96.02236245 294.0014389 -101.86023015 294.27184349 -107.94140625 294.2578125 C-108.86791489 294.25876923 -109.79442352 294.25972595 -110.74900818 294.26071167 C-112.69619821 294.26138846 -114.64339055 294.25956935 -116.59057617 294.25537109 C-119.55718076 294.25000961 -122.5236344 294.25533633 -125.49023438 294.26171875 C-127.39062533 294.261058 -129.29101619 294.2597769 -131.19140625 294.2578125 C-132.07075333 294.25983673 -132.9501004 294.26186096 -133.85609436 294.26394653 C-138.6767854 294.24573823 -143.24609566 293.93467132 -148 293.125 C-148 292.465 -148 291.805 -148 291.125 C-151.3 290.795 -154.6 290.465 -158 290.125 C-158 289.465 -158 288.805 -158 288.125 C-158.99 288.125 -159.98 288.125 -161 288.125 C-161 287.465 -161 286.805 -161 286.125 C-163.31 285.795 -165.62 285.465 -168 285.125 C-168 284.465 -168 283.805 -168 283.125 C-168.66 283.125 -169.32 283.125 -170 283.125 C-170 282.465 -170 281.805 -170 281.125 C-170.66 281.125 -171.32 281.125 -172 281.125 C-172 280.465 -172 279.805 -172 279.125 C-172.61875 279.0425 -173.2375 278.96 -173.875 278.875 C-176 278.125 -176 278.125 -177.25 276.0625 C-177.4975 275.423125 -177.745 274.78375 -178 274.125 C-178.66 274.125 -179.32 274.125 -180 274.125 C-180 273.135 -180 272.145 -180 271.125 C-180.66 271.125 -181.32 271.125 -182 271.125 C-182.33 269.805 -182.66 268.485 -183 267.125 C-183.66 267.125 -184.32 267.125 -185 267.125 C-185 266.135 -185 265.145 -185 264.125 C-185.66 264.125 -186.32 264.125 -187 264.125 C-189.43425238 259.15506806 -190.34615998 255.77894631 -190 250.125 C-190.66 250.125 -191.32 250.125 -192 250.125 C-192 247.485 -192 244.845 -192 242.125 C-192.66 242.125 -193.32 242.125 -194 242.125 C-194.02886751 237.97918113 -194.04675327 233.83338784 -194.0625 229.6875 C-194.07087891 228.50349609 -194.07925781 227.31949219 -194.08789062 226.09960938 C-194.09111328 224.97490234 -194.09433594 223.85019531 -194.09765625 222.69140625 C-194.10289307 221.64927979 -194.10812988 220.60715332 -194.11352539 219.53344727 C-194 217.125 -194 217.125 -193 216.125 C-192.81422064 214.42054813 -192.67670464 212.71073886 -192.5625 211 C-192.19370135 206.46904519 -191.33987524 202.47959452 -190 198.125 C-189.63049535 195.79712073 -189.28647533 193.46454855 -189 191.125 C-188.34 191.125 -187.68 191.125 -187 191.125 C-187 189.475 -187 187.825 -187 186.125 C-186.34 186.125 -185.68 186.125 -185 186.125 C-185 184.475 -185 182.825 -185 181.125 C-184.34 181.125 -183.68 181.125 -183 181.125 C-182.67 177.495 -182.34 173.865 -182 170.125 C-181.34 170.125 -180.68 170.125 -180 170.125 C-180 169.135 -180 168.145 -180 167.125 C-179.34 167.125 -178.68 167.125 -178 167.125 C-177.67 164.155 -177.34 161.185 -177 158.125 C-176.34 158.125 -175.68 158.125 -175 158.125 C-175 157.135 -175 156.145 -175 155.125 C-174.34 155.125 -173.68 155.125 -173 155.125 C-172.87625 154.2175 -172.7525 153.31 -172.625 152.375 C-172.07890323 149.53529677 -171.42736197 147.59909409 -170 145.125 C-169.34 145.125 -168.68 145.125 -168 145.125 C-168 143.805 -168 142.485 -168 141.125 C-167.34 141.125 -166.68 141.125 -166 141.125 C-165.87625 140.2175 -165.7525 139.31 -165.625 138.375 C-165.07890323 135.53529677 -164.42736197 133.59909409 -163 131.125 C-162.34 131.125 -161.68 131.125 -161 131.125 C-160.67 129.475 -160.34 127.825 -160 126.125 C-159.34 126.125 -158.68 126.125 -158 126.125 C-158 125.135 -158 124.145 -158 123.125 C-157.34 123.125 -156.68 123.125 -156 123.125 C-156 122.465 -156 121.805 -156 121.125 C-155.34 121.125 -154.68 121.125 -154 121.125 C-153.67 118.815 -153.34 116.505 -153 114.125 C-152.34 114.125 -151.68 114.125 -151 114.125 C-151 113.465 -151 112.805 -151 112.125 C-150.34 112.125 -149.68 112.125 -149 112.125 C-148.67 110.475 -148.34 108.825 -148 107.125 C-147.34 107.125 -146.68 107.125 -146 107.125 C-146 106.465 -146 105.805 -146 105.125 C-145.34 105.125 -144.68 105.125 -144 105.125 C-144 104.135 -144 103.145 -144 102.125 C-143.34 102.125 -142.68 102.125 -142 102.125 C-141.67 100.475 -141.34 98.825 -141 97.125 C-140.34 97.125 -139.68 97.125 -139 97.125 C-139 96.465 -139 95.805 -139 95.125 C-138.34 95.125 -137.68 95.125 -137 95.125 C-136.67 93.475 -136.34 91.825 -136 90.125 C-135.34 90.125 -134.68 90.125 -134 90.125 C-134 89.465 -134 88.805 -134 88.125 C-132.625 86.5 -132.625 86.5 -131 85.125 C-130.34 85.125 -129.68 85.125 -129 85.125 C-129 84.135 -129 83.145 -129 82.125 C-128.34 82.125 -127.68 82.125 -127 82.125 C-127 81.465 -127 80.805 -127 80.125 C-126.34 80.125 -125.68 80.125 -125 80.125 C-124.505 78.145 -124.505 78.145 -124 76.125 C-122.68 75.795 -121.36 75.465 -120 75.125 C-119.67 73.475 -119.34 71.825 -119 70.125 C-118.34 70.125 -117.68 70.125 -117 70.125 C-117 69.465 -117 68.805 -117 68.125 C-116.34 68.125 -115.68 68.125 -115 68.125 C-115 67.465 -115 66.805 -115 66.125 C-114.34 66.125 -113.68 66.125 -113 66.125 C-112.505 64.64 -112.505 64.64 -112 63.125 C-111.34 63.125 -110.68 63.125 -110 63.125 C-110 62.465 -110 61.805 -110 61.125 C-109.34 61.125 -108.68 61.125 -108 61.125 C-107.67 60.135 -107.34 59.145 -107 58.125 C-106.34 58.125 -105.68 58.125 -105 58.125 C-105 57.465 -105 56.805 -105 56.125 C-104.34 56.125 -103.68 56.125 -103 56.125 C-102.67 55.135 -102.34 54.145 -102 53.125 C-101.34 53.125 -100.68 53.125 -100 53.125 C-100 52.465 -100 51.805 -100 51.125 C-99.34 51.125 -98.68 51.125 -98 51.125 C-98 50.465 -98 49.805 -98 49.125 C-97.34 49.125 -96.68 49.125 -96 49.125 C-95.67 48.135 -95.34 47.145 -95 46.125 C-94.34 46.125 -93.68 46.125 -93 46.125 C-93 45.465 -93 44.805 -93 44.125 C-92.34 44.125 -91.68 44.125 -91 44.125 C-91 43.465 -91 42.805 -91 42.125 C-89.35 41.795 -87.7 41.465 -86 41.125 C-86 40.465 -86 39.805 -86 39.125 C-85.34 39.125 -84.68 39.125 -84 39.125 C-83.62875 38.1659375 -83.62875 38.1659375 -83.25 37.1875 C-82 35.125 -82 35.125 -79.875 34.375 C-79.25625 34.2925 -78.6375 34.21 -78 34.125 C-78 33.465 -78 32.805 -78 32.125 C-77.34 32.125 -76.68 32.125 -76 32.125 C-76 31.465 -76 30.805 -76 30.125 C-74.35 29.795 -72.7 29.465 -71 29.125 C-71 28.465 -71 27.805 -71 27.125 C-70.34 27.125 -69.68 27.125 -69 27.125 C-69 26.465 -69 25.805 -69 25.125 C-67.35 24.795 -65.7 24.465 -64 24.125 C-64 23.465 -64 22.805 -64 22.125 C-63.34 22.125 -62.68 22.125 -62 22.125 C-62 21.465 -62 20.805 -62 20.125 C-61.01 20.125 -60.02 20.125 -59 20.125 C-59 19.465 -59 18.805 -59 18.125 C-58.360625 18.00125 -57.72125 17.8775 -57.0625 17.75 C-56.381875 17.54375 -55.70125 17.3375 -55 17.125 C-54.67 16.465 -54.34 15.805 -54 15.125 C-52.68 15.125 -51.36 15.125 -50 15.125 C-50 14.465 -50 13.805 -50 13.125 C-46.535 12.63 -46.535 12.63 -43 12.125 C-43 11.465 -43 10.805 -43 10.125 C-42.01 10.125 -41.02 10.125 -40 10.125 C-40 9.465 -40 8.805 -40 8.125 C-38.35 8.125 -36.7 8.125 -35 8.125 C-35 7.465 -35 6.805 -35 6.125 C-30.545 5.63 -30.545 5.63 -26 5.125 C-26 4.465 -26 3.805 -26 3.125 C-17.32822974 0.41507179 -9.03839093 -0.03694165 0 0 Z M-15 35.125 C-15 35.785 -15 36.445 -15 37.125 C-16.65 37.125 -18.3 37.125 -20 37.125 C-20 37.785 -20 38.445 -20 39.125 C-20.53625 39.24875 -21.0725 39.3725 -21.625 39.5 C-24.4638286 40.24706016 -27.22223202 41.17803364 -30 42.125 C-30 42.785 -30 43.445 -30 44.125 C-30.804375 44.310625 -30.804375 44.310625 -31.625 44.5 C-34.4638286 45.24706016 -37.22223202 46.17803364 -40 47.125 C-40 47.785 -40 48.445 -40 49.125 C-40.66 49.125 -41.32 49.125 -42 49.125 C-42 49.785 -42 50.445 -42 51.125 C-43.65 51.455 -45.3 51.785 -47 52.125 C-47 52.785 -47 53.445 -47 54.125 C-47.99 54.125 -48.98 54.125 -50 54.125 C-50 54.785 -50 55.445 -50 56.125 C-50.66 56.125 -51.32 56.125 -52 56.125 C-52 56.785 -52 57.445 -52 58.125 C-53.65 58.455 -55.3 58.785 -57 59.125 C-57 59.785 -57 60.445 -57 61.125 C-57.66 61.125 -58.32 61.125 -59 61.125 C-59 61.785 -59 62.445 -59 63.125 C-60.485 63.62 -60.485 63.62 -62 64.125 C-62 64.785 -62 65.445 -62 66.125 C-63.32 66.125 -64.64 66.125 -66 66.125 C-68.79197732 68.41682272 -68.79197732 68.41682272 -71 71.125 C-71 71.785 -71 72.445 -71 73.125 C-71.66 73.125 -72.32 73.125 -73 73.125 C-74.66666667 74.45833333 -74.66666667 74.45833333 -76 76.125 C-76 76.785 -76 77.445 -76 78.125 C-76.66 78.125 -77.32 78.125 -78 78.125 C-79.66666667 79.45833333 -79.66666667 79.45833333 -81 81.125 C-81 81.785 -81 82.445 -81 83.125 C-81.66 83.125 -82.32 83.125 -83 83.125 C-83 83.785 -83 84.445 -83 85.125 C-83.66 85.125 -84.32 85.125 -85 85.125 C-86.66666667 86.45833333 -86.66666667 86.45833333 -88 88.125 C-88 88.785 -88 89.445 -88 90.125 C-88.66 90.125 -89.32 90.125 -90 90.125 C-91.66666667 91.45833333 -91.66666667 91.45833333 -93 93.125 C-93 93.785 -93 94.445 -93 95.125 C-93.66 95.125 -94.32 95.125 -95 95.125 C-95.33 96.775 -95.66 98.425 -96 100.125 C-96.66 100.125 -97.32 100.125 -98 100.125 C-98 100.785 -98 101.445 -98 102.125 C-98.66 102.125 -99.32 102.125 -100 102.125 C-100 102.785 -100 103.445 -100 104.125 C-100.99 104.455 -101.98 104.785 -103 105.125 C-104.93818042 107.99350702 -106.49946106 111.00849604 -108 114.125 C-108.66 114.125 -109.32 114.125 -110 114.125 C-110 115.115 -110 116.105 -110 117.125 C-110.66 117.125 -111.32 117.125 -112 117.125 C-112 117.785 -112 118.445 -112 119.125 C-112.66 119.125 -113.32 119.125 -114 119.125 C-114.33 120.775 -114.66 122.425 -115 124.125 C-115.66 124.125 -116.32 124.125 -117 124.125 C-117 124.785 -117 125.445 -117 126.125 C-117.66 126.125 -118.32 126.125 -119 126.125 C-119.33 127.775 -119.66 129.425 -120 131.125 C-120.66 131.125 -121.32 131.125 -122 131.125 C-122 132.115 -122 133.105 -122 134.125 C-122.66 134.125 -123.32 134.125 -124 134.125 C-124.45375 135.094375 -124.9075 136.06375 -125.375 137.0625 C-127 140.125 -127 140.125 -129 141.125 C-129 142.445 -129 143.765 -129 145.125 C-129.66 145.125 -130.32 145.125 -131 145.125 C-131.33 147.105 -131.66 149.085 -132 151.125 C-132.66 151.125 -133.32 151.125 -134 151.125 C-134 151.785 -134 152.445 -134 153.125 C-134.66 153.125 -135.32 153.125 -136 153.125 C-136.33 155.435 -136.66 157.745 -137 160.125 C-137.66 160.125 -138.32 160.125 -139 160.125 C-139 161.115 -139 162.105 -139 163.125 C-139.66 163.125 -140.32 163.125 -141 163.125 C-141 164.445 -141 165.765 -141 167.125 C-141.66 167.125 -142.32 167.125 -143 167.125 C-143.33 169.435 -143.66 171.745 -144 174.125 C-144.66 174.125 -145.32 174.125 -146 174.125 C-146 175.775 -146 177.425 -146 179.125 C-146.66 179.125 -147.32 179.125 -148 179.125 C-148.33 181.765 -148.66 184.405 -149 187.125 C-149.66 187.125 -150.32 187.125 -151 187.125 C-151 188.445 -151 189.765 -151 191.125 C-151.66 191.125 -152.32 191.125 -153 191.125 C-153.13277344 191.90746094 -153.26554687 192.68992187 -153.40234375 193.49609375 C-153.57894531 194.50800781 -153.75554687 195.51992188 -153.9375 196.5625 C-154.19853516 198.07650391 -154.19853516 198.07650391 -154.46484375 199.62109375 C-155 202.125 -155 202.125 -156 203.125 C-156.04080783 205.12458364 -156.04254356 207.12545254 -156 209.125 C-156.66 209.125 -157.32 209.125 -158 209.125 C-158 212.095 -158 215.065 -158 218.125 C-158.66 218.125 -159.32 218.125 -160 218.125 C-160 225.055 -160 231.985 -160 239.125 C-159.34 239.125 -158.68 239.125 -158 239.125 C-158 240.775 -158 242.425 -158 244.125 C-157.34 244.125 -156.68 244.125 -156 244.125 C-155.87625 244.888125 -155.7525 245.65125 -155.625 246.4375 C-155.11897208 249.32767136 -155.11897208 249.32767136 -153 252.125 C-152.34 252.125 -151.68 252.125 -151 252.125 C-151 252.785 -151 253.445 -151 254.125 C-150.01 254.125 -149.02 254.125 -148 254.125 C-148 254.785 -148 255.445 -148 256.125 C-146.35 256.455 -144.7 256.785 -143 257.125 C-143 257.785 -143 258.445 -143 259.125 C-140.69 259.125 -138.38 259.125 -136 259.125 C-136 259.785 -136 260.445 -136 261.125 C-124.86438211 261.89665796 -114.12815896 262.30498423 -103 261.125 C-103 260.465 -103 259.805 -103 259.125 C-100.36 259.125 -97.72 259.125 -95 259.125 C-95 258.465 -95 257.805 -95 257.125 C-91.37 256.795 -87.74 256.465 -84 256.125 C-84 255.465 -84 254.805 -84 254.125 C-82.35 254.125 -80.7 254.125 -79 254.125 C-79 253.465 -79 252.805 -79 252.125 C-78.0925 252.063125 -77.185 252.00125 -76.25 251.9375 C-72.59867356 251.43590364 -69.55457455 250.16466819 -66.1875 248.6875 C-60.84970619 246.35852565 -55.74915814 244.97719822 -50 244.125 C-50 243.465 -50 242.805 -50 242.125 C-49.01 242.125 -48.02 242.125 -47 242.125 C-47 241.465 -47 240.805 -47 240.125 C-45.948125 240.145625 -44.89625 240.16625 -43.8125 240.1875 C-40.67295096 240.13603198 -38.03116604 239.85982813 -35 239.125 C-35 238.465 -35 237.805 -35 237.125 C-32.69 237.125 -30.38 237.125 -28 237.125 C-28 236.465 -28 235.805 -28 235.125 C-27.28972656 235.13660156 -26.57945312 235.14820313 -25.84765625 235.16015625 C-24.92855469 235.16917969 -24.00945312 235.17820312 -23.0625 235.1875 C-21.68771484 235.20490234 -21.68771484 235.20490234 -20.28515625 235.22265625 C-18.03406673 235.38449049 -18.03406673 235.38449049 -17 234.125 C-14.49075847 234.02412788 -12.00963616 233.98527968 -9.5 233.9921875 C-8.74912109 233.99123077 -7.99824219 233.99027405 -7.22460938 233.98928833 C-5.63411373 233.98860662 -4.04361533 233.99046028 -2.453125 233.99462891 C-0.01035345 233.99997733 2.43223421 233.99468366 4.875 233.98828125 C6.41666707 233.98894203 7.95833403 233.9902232 9.5 233.9921875 C10.23541016 233.99016327 10.97082031 233.98813904 11.72851562 233.98605347 C16.88504839 234.01004839 16.88504839 234.01004839 18 235.125 C19.68608966 235.19705511 21.37500659 235.20886068 23.0625 235.1875 C23.98160156 235.17847656 24.90070313 235.16945313 25.84765625 235.16015625 C26.55792969 235.14855469 27.26820313 235.13695312 28 235.125 C28 235.785 28 236.445 28 237.125 C30.31 237.125 32.62 237.125 35 237.125 C35 237.785 35 238.445 35 239.125 C39.0527516 240.10748524 42.83861737 240.20659574 47 240.125 C47 240.785 47 241.445 47 242.125 C47.99 242.125 48.98 242.125 50 242.125 C50 242.785 50 243.445 50 244.125 C50.71027344 244.25777344 51.42054688 244.39054688 52.15234375 244.52734375 C53.07144531 244.70394531 53.99054688 244.88054687 54.9375 245.0625 C55.85402344 245.23652344 56.77054688 245.41054688 57.71484375 245.58984375 C60 246.125 60 246.125 61 247.125 C62.66617115 247.16563832 64.33388095 247.167721 66 247.125 C66 247.785 66 248.445 66 249.125 C72.28275689 251.76972478 72.28275689 251.76972478 79 252.125 C79 252.785 79 253.445 79 254.125 C80.65 254.125 82.3 254.125 84 254.125 C84 254.785 84 255.445 84 256.125 C87.63 256.455 91.26 256.785 95 257.125 C95 257.785 95 258.445 95 259.125 C97.64 259.125 100.28 259.125 103 259.125 C103 259.785 103 260.445 103 261.125 C119.51762368 262.21015048 119.51762368 262.21015048 136 261.125 C136 260.465 136 259.805 136 259.125 C137.65 259.125 139.3 259.125 141 259.125 C141 258.465 141 257.805 141 257.125 C143.31 256.795 145.62 256.465 148 256.125 C148 255.465 148 254.805 148 254.125 C148.99 254.125 149.98 254.125 151 254.125 C151 253.465 151 252.805 151 252.125 C151.66 252.125 152.32 252.125 153 252.125 C155.04169485 249.21951118 156 247.72357954 156 244.125 C156.66 244.125 157.32 244.125 158 244.125 C158 242.475 158 240.825 158 239.125 C158.66 239.125 159.32 239.125 160 239.125 C160 232.195 160 225.265 160 218.125 C159.34 218.125 158.68 218.125 158 218.125 C158 215.155 158 212.185 158 209.125 C157.34 209.125 156.68 209.125 156 209.125 C156.04125 208.25875 156.0825 207.3925 156.125 206.5 C155.99412357 202.96633629 155.19627116 200.43233791 154 197.125 C153.63893903 195.46411955 153.29537827 193.79881019 153 192.125 C152.34 192.125 151.68 192.125 151 192.125 C151 190.475 151 188.825 151 187.125 C150.34 187.125 149.68 187.125 149 187.125 C148.67 184.485 148.34 181.845 148 179.125 C147.34 179.125 146.68 179.125 146 179.125 C146 177.475 146 175.825 146 174.125 C145.34 174.125 144.68 174.125 144 174.125 C143.67 171.815 143.34 169.505 143 167.125 C142.34 167.125 141.68 167.125 141 167.125 C141 165.805 141 164.485 141 163.125 C140.34 163.125 139.68 163.125 139 163.125 C139 162.135 139 161.145 139 160.125 C138.34 160.125 137.68 160.125 137 160.125 C136.67 157.815 136.34 155.505 136 153.125 C135.34 153.125 134.68 153.125 134 153.125 C134 152.465 134 151.805 134 151.125 C133.34 151.125 132.68 151.125 132 151.125 C131.67 149.145 131.34 147.165 131 145.125 C130.34 145.125 129.68 145.125 129 145.125 C129 144.465 129 143.805 129 143.125 C128.34 143.125 127.68 143.125 127 143.125 C126.87625 142.568125 126.7525 142.01125 126.625 141.4375 C125.94023145 138.90385636 125.00866237 136.54578968 124 134.125 C123.34 134.125 122.68 134.125 122 134.125 C122 133.135 122 132.145 122 131.125 C121.34 131.125 120.68 131.125 120 131.125 C119.67 129.475 119.34 127.825 119 126.125 C118.34 126.125 117.68 126.125 117 126.125 C117 125.465 117 124.805 117 124.125 C116.34 124.125 115.68 124.125 115 124.125 C114.67 122.475 114.34 120.825 114 119.125 C113.34 119.125 112.68 119.125 112 119.125 C112 118.465 112 117.805 112 117.125 C111.34 117.125 110.68 117.125 110 117.125 C110 116.135 110 115.145 110 114.125 C109.34 114.125 108.68 114.125 108 114.125 C107.7525 113.58875 107.505 113.0525 107.25 112.5 C105.69347463 109.5426018 103.96564327 106.82775949 102 104.125 C101.34 104.125 100.68 104.125 100 104.125 C100 103.465 100 102.805 100 102.125 C99.34 102.125 98.68 102.125 98 102.125 C98 101.465 98 100.805 98 100.125 C97.34 100.125 96.68 100.125 96 100.125 C95.67 98.475 95.34 96.825 95 95.125 C94.34 95.125 93.68 95.125 93 95.125 C93 94.465 93 93.805 93 93.125 C91.66666667 91.45833333 91.66666667 91.45833333 90 90.125 C89.34 90.125 88.68 90.125 88 90.125 C88 89.465 88 88.805 88 88.125 C86.66666667 86.45833333 86.66666667 86.45833333 85 85.125 C84.34 85.125 83.68 85.125 83 85.125 C83 84.465 83 83.805 83 83.125 C82.34 83.125 81.68 83.125 81 83.125 C81 82.465 81 81.805 81 81.125 C79.66666667 79.45833333 79.66666667 79.45833333 78 78.125 C77.34 78.125 76.68 78.125 76 78.125 C76 77.465 76 76.805 76 76.125 C74.66666667 74.45833333 74.66666667 74.45833333 73 73.125 C72.34 73.125 71.68 73.125 71 73.125 C71 72.465 71 71.805 71 71.125 C68.79197732 68.41682272 68.79197732 68.41682272 66 66.125 C64.68 66.125 63.36 66.125 62 66.125 C61.67 65.135 61.34 64.145 61 63.125 C60.34 63.125 59.68 63.125 59 63.125 C59 62.465 59 61.805 59 61.125 C58.34 61.125 57.68 61.125 57 61.125 C57 60.465 57 59.805 57 59.125 C55.35 58.795 53.7 58.465 52 58.125 C52 57.465 52 56.805 52 56.125 C51.34 56.125 50.68 56.125 50 56.125 C50 55.465 50 54.805 50 54.125 C49.01 54.125 48.02 54.125 47 54.125 C47 53.465 47 52.805 47 52.125 C45.35 51.795 43.7 51.465 42 51.125 C42 50.465 42 49.805 42 49.125 C41.34 49.125 40.68 49.125 40 49.125 C40 48.465 40 47.805 40 47.125 C35.18790099 44.83454986 35.18790099 44.83454986 30 44.125 C30 43.465 30 42.805 30 42.125 C25.18790099 39.83454986 25.18790099 39.83454986 20 39.125 C20 38.465 20 37.805 20 37.125 C18.35 37.125 16.7 37.125 15 37.125 C15 36.465 15 35.805 15 35.125 C9.97253269 34.30018114 5.0991028 33.97069481 0 34 C-1.00933594 33.99419922 -1.00933594 33.99419922 -2.0390625 33.98828125 C-6.46889635 33.99683305 -10.64341336 34.4102475 -15 35.125 Z " fill="#69AEEE" transform="translate(256,217.875)"/>
<path d="M0 0 C8.91 0 17.82 0 27 0 C27 0.66 27 1.32 27 2 C28.65 2 30.3 2 32 2 C32 2.66 32 3.32 32 4 C34.31 4.33 36.62 4.66 39 5 C39 5.66 39 6.32 39 7 C39.99 7 40.98 7 42 7 C42 7.66 42 8.32 42 9 C44.33214148 10.20628008 46.49642139 11.1654738 49 12 C49 12.66 49 13.32 49 14 C49.66 14 50.32 14 51 14 C51.495 16.475 51.495 16.475 52 19 C52.66 19 53.32 19 54 19 C54 19.99 54 20.98 54 22 C54.66 22 55.32 22 56 22 C56 21.01 56 20.02 56 19 C56.66 19 57.32 19 58 19 C58.33 17.35 58.66 15.7 59 14 C59.66 14 60.32 14 61 14 C61 13.34 61 12.68 61 12 C65.38461538 9 65.38461538 9 68 9 C68 8.34 68 7.68 68 7 C68.99 7 69.98 7 71 7 C71 6.34 71 5.68 71 5 C74.465 4.505 74.465 4.505 78 4 C78 3.34 78 2.68 78 2 C79.65 2 81.3 2 83 2 C83 1.34 83 0.68 83 0 C91.91 0 100.82 0 110 0 C110 0.66 110 1.32 110 2 C111.98 2 113.96 2 116 2 C116 2.66 116 3.32 116 4 C117.65 4.33 119.3 4.66 121 5 C121 5.66 121 6.32 121 7 C121.99 7 122.98 7 124 7 C124 7.66 124 8.32 124 9 C124.66 9 125.32 9 126 9 C127.625 10.375 127.625 10.375 129 12 C129 12.66 129 13.32 129 14 C129.66 14 130.32 14 131 14 C131 14.99 131 15.98 131 17 C131.66 17 132.32 17 133 17 C135.15305957 20.85756507 136.39253254 23.55129785 136 28 C136.66 28 137.32 28 138 28 C139.06006871 31.18020613 139.12919606 33.46464771 139.1328125 36.8046875 C139.13410156 37.94550781 139.13539063 39.08632813 139.13671875 40.26171875 C139.13285156 41.45410156 139.12898437 42.64648438 139.125 43.875 C139.12886719 45.05964844 139.13273438 46.24429688 139.13671875 47.46484375 C139.13478516 49.17994141 139.13478516 49.17994141 139.1328125 50.9296875 C139.13168457 51.97366699 139.13055664 53.01764648 139.12939453 54.09326172 C139.00727186 56.83664393 138.6192268 59.32939228 138 62 C137.34 62 136.68 62 136 62 C136 63.65 136 65.3 136 67 C135.34 67 134.68 67 134 67 C133.9175 67.94875 133.835 68.8975 133.75 69.875 C133.37875 71.421875 133.37875 71.421875 133 73 C131.68352881 73.69937532 130.34977849 74.36729133 129 75 C128.18828772 77.55519921 128.18828772 77.55519921 128 80 C127.34 80 126.68 80 126 80 C126 81.32 126 82.64 126 84 C123.625 86.75 123.625 86.75 121 89 C120.34 89 119.68 89 119 89 C119 89.66 119 90.32 119 91 C117.625 92.625 117.625 92.625 116 94 C115.34 94 114.68 94 114 94 C114 94.66 114 95.32 114 96 C111.625 98.625 111.625 98.625 109 101 C108.34 101 107.68 101 107 101 C107 101.66 107 102.32 107 103 C105.625 104.625 105.625 104.625 104 106 C103.34 106 102.68 106 102 106 C102 106.66 102 107.32 102 108 C100.35 108.33 98.7 108.66 97 109 C97 109.66 97 110.32 97 111 C96.34 111 95.68 111 95 111 C95 111.66 95 112.32 95 113 C94.34 113 93.68 113 93 113 C92.505 114.485 92.505 114.485 92 116 C90.68 116 89.36 116 88 116 C87.773125 116.639375 87.54625 117.27875 87.3125 117.9375 C86.6628125 118.9584375 86.6628125 118.9584375 86 120 C84.33333333 120.33333333 82.66666667 120.66666667 81 121 C79.8499169 122.96672915 79.8499169 122.96672915 79 125 C77.515 125.495 77.515 125.495 76 126 C75.67 126.66 75.34 127.32 75 128 C73.68 128 72.36 128 71 128 C71 128.66 71 129.32 71 130 C70.34 130 69.68 130 69 130 C69 130.66 69 131.32 69 132 C67.35 132.33 65.7 132.66 64 133 C64 133.66 64 134.32 64 135 C63.01 135 62.02 135 61 135 C61 135.66 61 136.32 61 137 C58.01002175 138.49498913 55.29957225 138.11577446 52 138 C51.01 137.67 50.02 137.34 49 137 C49 136.34 49 135.68 49 135 C48.34 135 47.68 135 47 135 C47 134.34 47 133.68 47 133 C45.35 132.67 43.7 132.34 42 132 C42 131.34 42 130.68 42 130 C41.01 130 40.02 130 39 130 C39 129.34 39 128.68 39 128 C37.824375 127.5359375 37.824375 127.5359375 36.625 127.0625 C34 126 34 126 32 125 C32 124.34 32 123.68 32 123 C31.01 123 30.02 123 29 123 C29 122.34 29 121.68 29 121 C27.68 120.67 26.36 120.34 25 120 C25 119.34 25 118.68 25 118 C24.01 118 23.02 118 22 118 C22 117.34 22 116.68 22 116 C21.21625 115.690625 20.4325 115.38125 19.625 115.0625 C17 114 17 114 15 113 C15 112.34 15 111.68 15 111 C14.34 111 13.68 111 13 111 C13 110.34 13 109.68 13 109 C11.35 108.67 9.7 108.34 8 108 C8 107.34 8 106.68 8 106 C7.34 106 6.68 106 6 106 C4.375 104.625 4.375 104.625 3 103 C3 102.34 3 101.68 3 101 C2.34 101 1.68 101 1 101 C0.67 99.68 0.34 98.36 0 97 C-1.32 96.67 -2.64 96.34 -4 96 C-4 95.34 -4 94.68 -4 94 C-4.66 94 -5.32 94 -6 94 C-7.625 92.625 -7.625 92.625 -9 91 C-9 90.34 -9 89.68 -9 89 C-9.66 89 -10.32 89 -11 89 C-13.625 86.75 -13.625 86.75 -16 84 C-16 82.68 -16 81.36 -16 80 C-16.99 79.67 -17.98 79.34 -19 79 C-19 77.68 -19 76.36 -19 75 C-19.639375 74.79375 -20.27875 74.5875 -20.9375 74.375 C-23 73 -23 73 -23.75 69.875 C-23.8325 68.92625 -23.915 67.9775 -24 67 C-24.66 67 -25.32 67 -26 67 C-26 65.68 -26 64.36 -26 63 C-26.66 63 -27.32 63 -28 63 C-28.84013699 59.34577951 -29.12854131 55.96519026 -29.1328125 52.21875 C-29.13410156 51.12949219 -29.13539063 50.04023438 -29.13671875 48.91796875 C-29.13285156 47.79003906 -29.12898437 46.66210938 -29.125 45.5 C-29.12886719 44.37207031 -29.13273438 43.24414062 -29.13671875 42.08203125 C-29.13542969 40.99277344 -29.13414062 39.90351563 -29.1328125 38.78125 C-29.13168457 37.79189453 -29.13055664 36.80253906 -29.12939453 35.78320312 C-29.00410608 33.08831948 -28.60357957 30.62530139 -28 28 C-27.34 28 -26.68 28 -26 28 C-26 26.02 -26 24.04 -26 22 C-25.34 21.67 -24.68 21.34 -24 21 C-23.34786708 18.97536745 -23.34786708 18.97536745 -23 17 C-21.68 16.67 -20.36 16.34 -19 16 C-19 14.68 -19 13.36 -19 12 C-17.625 10.25 -17.625 10.25 -16 9 C-15.34 9 -14.68 9 -14 9 C-14 8.34 -14 7.68 -14 7 C-13.01 7 -12.02 7 -11 7 C-11 6.34 -11 5.68 -11 5 C-7.14243493 2.84694043 -4.44870215 1.60746746 0 2 C0 1.34 0 0.68 0 0 Z " fill="#FF5574" transform="translate(201,301)"/>
<path d="M0 0 C1.56621094 -0.00193359 1.56621094 -0.00193359 3.1640625 -0.00390625 C4.78441406 0.00189453 4.78441406 0.00189453 6.4375 0.0078125 C7.51773438 0.00394531 8.59796875 0.00007813 9.7109375 -0.00390625 C10.75507813 -0.00261719 11.79921875 -0.00132813 12.875 0 C13.82246094 0.00112793 14.76992187 0.00225586 15.74609375 0.00341797 C18.40508753 0.13125421 20.84582307 0.54074837 23.4375 1.1328125 C23.4375 1.7928125 23.4375 2.4528125 23.4375 3.1328125 C25.7475 3.4628125 28.0575 3.7928125 30.4375 4.1328125 C30.4375 4.7928125 30.4375 5.4528125 30.4375 6.1328125 C31.7575 6.1328125 33.0775 6.1328125 34.4375 6.1328125 C34.9325 7.1228125 34.9325 7.1228125 35.4375 8.1328125 C36.283125 8.6278125 37.12875 9.1228125 38 9.6328125 C38.804375 10.1278125 39.60875 10.6228125 40.4375 11.1328125 C40.4375 11.7928125 40.4375 12.4528125 40.4375 13.1328125 C41.0975 13.1328125 41.7575 13.1328125 42.4375 13.1328125 C42.4375 13.7928125 42.4375 14.4528125 42.4375 15.1328125 C43.076875 15.4009375 43.71625 15.6690625 44.375 15.9453125 C46.4375 17.1328125 46.4375 17.1328125 47.4375 20.1328125 C48.4275 20.596875 48.4275 20.596875 49.4375 21.0703125 C51.4375 22.1328125 51.4375 22.1328125 52.1875 24.2578125 C52.27 24.8765625 52.3525 25.4953125 52.4375 26.1328125 C53.0975 26.1328125 53.7575 26.1328125 54.4375 26.1328125 C54.4375 26.7928125 54.4375 27.4528125 54.4375 28.1328125 C55.0975 28.1328125 55.7575 28.1328125 56.4375 28.1328125 C56.623125 29.091875 56.623125 29.091875 56.8125 30.0703125 C57.121875 31.09125 57.121875 31.09125 57.4375 32.1328125 C58.0975 32.4628125 58.7575 32.7928125 59.4375 33.1328125 C59.4375 34.4528125 59.4375 35.7728125 59.4375 37.1328125 C60.0975 37.1328125 60.7575 37.1328125 61.4375 37.1328125 C61.4375 38.1228125 61.4375 39.1128125 61.4375 40.1328125 C62.0975 40.1328125 62.7575 40.1328125 63.4375 40.1328125 C63.9325 42.6078125 63.9325 42.6078125 64.4375 45.1328125 C65.0975 45.1328125 65.7575 45.1328125 66.4375 45.1328125 C66.4375 46.7828125 66.4375 48.4328125 66.4375 50.1328125 C67.0975 50.1328125 67.7575 50.1328125 68.4375 50.1328125 C68.9325 54.5878125 68.9325 54.5878125 69.4375 59.1328125 C70.0975 59.1328125 70.7575 59.1328125 71.4375 59.1328125 C71.4375 60.7828125 71.4375 62.4328125 71.4375 64.1328125 C72.0975 64.1328125 72.7575 64.1328125 73.4375 64.1328125 C75.59471701 71.60602858 76.90280864 78.34320126 76.4375 86.1328125 C77.0975 86.1328125 77.7575 86.1328125 78.4375 86.1328125 C78.4375 100.3228125 78.4375 114.5128125 78.4375 129.1328125 C77.7775 129.1328125 77.1175 129.1328125 76.4375 129.1328125 C76.458125 130.3496875 76.47875 131.5665625 76.5 132.8203125 C76.50574116 136.05258572 76.22516315 138.98215991 75.4375 142.1328125 C74.7775 142.1328125 74.1175 142.1328125 73.4375 142.1328125 C73.4375 144.1128125 73.4375 146.0928125 73.4375 148.1328125 C72.7775 148.1328125 72.1175 148.1328125 71.4375 148.1328125 C71.4375 149.7828125 71.4375 151.4328125 71.4375 153.1328125 C70.7775 153.1328125 70.1175 153.1328125 69.4375 153.1328125 C69.251875 154.4940625 69.251875 154.4940625 69.0625 155.8828125 C68.51640323 158.72251573 67.86486197 160.65871841 66.4375 163.1328125 C65.7775 163.1328125 65.1175 163.1328125 64.4375 163.1328125 C64.1075 164.1228125 63.7775 165.1128125 63.4375 166.1328125 C62.7775 166.1328125 62.1175 166.1328125 61.4375 166.1328125 C61.4375 167.4528125 61.4375 168.7728125 61.4375 170.1328125 C60.1175 170.4628125 58.7975 170.7928125 57.4375 171.1328125 C57.375625 171.7309375 57.31375 172.3290625 57.25 172.9453125 C56.10195318 176.03620779 54.33202948 176.7208469 51.4375 178.1328125 C50.7775 178.1328125 50.1175 178.1328125 49.4375 178.1328125 C49.4375 178.7928125 49.4375 179.4528125 49.4375 180.1328125 C48.1175 180.1328125 46.7975 180.1328125 45.4375 180.1328125 C45.4375 180.7928125 45.4375 181.4528125 45.4375 182.1328125 C41.02835217 183.23509946 36.95367599 183.20935786 32.4375 183.1328125 C32.4375 183.7928125 32.4375 184.4528125 32.4375 185.1328125 C29.4675 185.1328125 26.4975 185.1328125 23.4375 185.1328125 C23.4375 184.4728125 23.4375 183.8128125 23.4375 183.1328125 C22.220625 183.1534375 21.00375 183.1740625 19.75 183.1953125 C16.51772678 183.20105366 13.58815259 182.92047565 10.4375 182.1328125 C10.4375 181.4728125 10.4375 180.8128125 10.4375 180.1328125 C9.1175 180.1328125 7.7975 180.1328125 6.4375 180.1328125 C6.4375 179.4728125 6.4375 178.8128125 6.4375 178.1328125 C4.7875 177.8028125 3.1375 177.4728125 1.4375 177.1328125 C1.4375 176.4728125 1.4375 175.8128125 1.4375 175.1328125 C0.4475 175.1328125 -0.5425 175.1328125 -1.5625 175.1328125 C-1.5625 174.4728125 -1.5625 173.8128125 -1.5625 173.1328125 C-3.89464148 171.92653242 -6.05892139 170.9673387 -8.5625 170.1328125 C-8.5625 169.4728125 -8.5625 168.8128125 -8.5625 168.1328125 C-9.2225 168.1328125 -9.8825 168.1328125 -10.5625 168.1328125 C-12.1875 166.8828125 -12.1875 166.8828125 -13.5625 165.1328125 C-13.5625 163.8128125 -13.5625 162.4928125 -13.5625 161.1328125 C-14.201875 160.8646875 -14.84125 160.5965625 -15.5 160.3203125 C-17.5625 159.1328125 -17.5625 159.1328125 -18.5625 156.1328125 C-19.2225 156.1328125 -19.8825 156.1328125 -20.5625 156.1328125 C-20.5625 155.1428125 -20.5625 154.1528125 -20.5625 153.1328125 C-21.2225 153.1328125 -21.8825 153.1328125 -22.5625 153.1328125 C-22.8925 151.4828125 -23.2225 149.8328125 -23.5625 148.1328125 C-24.2225 148.1328125 -24.8825 148.1328125 -25.5625 148.1328125 C-25.5625 146.8128125 -25.5625 145.4928125 -25.5625 144.1328125 C-26.2225 144.1328125 -26.8825 144.1328125 -27.5625 144.1328125 C-30.1018228 140.71449335 -30.9261198 138.37504352 -30.5625 134.1328125 C-31.2225 134.1328125 -31.8825 134.1328125 -32.5625 134.1328125 C-35.99107143 126.84709821 -35.99107143 126.84709821 -35.5625 122.1328125 C-36.2225 122.1328125 -36.8825 122.1328125 -37.5625 122.1328125 C-37.5625 119.8228125 -37.5625 117.5128125 -37.5625 115.1328125 C-38.2225 115.1328125 -38.8825 115.1328125 -39.5625 115.1328125 C-41.88770414 105.90119846 -42.9902608 97.67029399 -42.5625 88.1328125 C-43.2225 88.1328125 -43.8825 88.1328125 -44.5625 88.1328125 C-44.5625 79.5528125 -44.5625 70.9728125 -44.5625 62.1328125 C-43.9025 62.1328125 -43.2425 62.1328125 -42.5625 62.1328125 C-42.58570312 61.33617187 -42.60890625 60.53953125 -42.6328125 59.71875 C-42.72943816 54.04544323 -42.67179377 49.46808497 -40.5625 44.1328125 C-40.18718554 41.80586286 -39.84332798 39.47304565 -39.5625 37.1328125 C-38.9025 37.1328125 -38.2425 37.1328125 -37.5625 37.1328125 C-37.5625 35.8128125 -37.5625 34.4928125 -37.5625 33.1328125 C-36.9025 33.1328125 -36.2425 33.1328125 -35.5625 33.1328125 C-35.2325 30.4928125 -34.9025 27.8528125 -34.5625 25.1328125 C-33.9025 25.1328125 -33.2425 25.1328125 -32.5625 25.1328125 C-32.5625 24.4728125 -32.5625 23.8128125 -32.5625 23.1328125 C-31.9025 23.1328125 -31.2425 23.1328125 -30.5625 23.1328125 C-30.2325 21.4828125 -29.9025 19.8328125 -29.5625 18.1328125 C-28.9025 18.1328125 -28.2425 18.1328125 -27.5625 18.1328125 C-27.5625 17.1428125 -27.5625 16.1528125 -27.5625 15.1328125 C-26.9025 15.1328125 -26.2425 15.1328125 -25.5625 15.1328125 C-25.5625 14.4728125 -25.5625 13.8128125 -25.5625 13.1328125 C-24.9025 13.1328125 -24.2425 13.1328125 -23.5625 13.1328125 C-23.2325 11.8128125 -22.9025 10.4928125 -22.5625 9.1328125 C-21.2425 8.8028125 -19.9225 8.4728125 -18.5625 8.1328125 C-18.5625 7.4728125 -18.5625 6.8128125 -18.5625 6.1328125 C-17.5725 6.1328125 -16.5825 6.1328125 -15.5625 6.1328125 C-15.5625 5.4728125 -15.5625 4.8128125 -15.5625 4.1328125 C-13.9125 3.8028125 -12.2625 3.4728125 -10.5625 3.1328125 C-10.5625 2.4728125 -10.5625 1.8128125 -10.5625 1.1328125 C-6.98132712 0.31469973 -3.67054234 0.00436969 0 0 Z M3.4375 33.1328125 C3.4375 33.7928125 3.4375 34.4528125 3.4375 35.1328125 C2.7775 35.1328125 2.1175 35.1328125 1.4375 35.1328125 C1.4375 35.7928125 1.4375 36.4528125 1.4375 37.1328125 C0.4475 37.4628125 -0.5425 37.7928125 -1.5625 38.1328125 C-1.5625 39.4528125 -1.5625 40.7728125 -1.5625 42.1328125 C-2.2225 42.1328125 -2.8825 42.1328125 -3.5625 42.1328125 C-3.5625 43.1228125 -3.5625 44.1128125 -3.5625 45.1328125 C-4.2225 45.1328125 -4.8825 45.1328125 -5.5625 45.1328125 C-5.8925 48.4328125 -6.2225 51.7328125 -6.5625 55.1328125 C-7.2225 55.1328125 -7.8825 55.1328125 -8.5625 55.1328125 C-8.5625 58.1028125 -8.5625 61.0728125 -8.5625 64.1328125 C-9.2225 64.1328125 -9.8825 64.1328125 -10.5625 64.1328125 C-10.5625 71.3928125 -10.5625 78.6528125 -10.5625 86.1328125 C-9.9025 86.1328125 -9.2425 86.1328125 -8.5625 86.1328125 C-8.5625 89.7628125 -8.5625 93.3928125 -8.5625 97.1328125 C-7.9025 97.1328125 -7.2425 97.1328125 -6.5625 97.1328125 C-6.2325 101.4228125 -5.9025 105.7128125 -5.5625 110.1328125 C-4.9025 110.1328125 -4.2425 110.1328125 -3.5625 110.1328125 C-3.5625 111.4528125 -3.5625 112.7728125 -3.5625 114.1328125 C-2.9025 114.1328125 -2.2425 114.1328125 -1.5625 114.1328125 C-1.2325 116.7728125 -0.9025 119.4128125 -0.5625 122.1328125 C0.0975 122.1328125 0.7575 122.1328125 1.4375 122.1328125 C1.581875 122.7309375 1.72625 123.3290625 1.875 123.9453125 C2.3247439 125.69431654 2.86642341 127.41958273 3.4375 129.1328125 C4.0975 129.1328125 4.7575 129.1328125 5.4375 129.1328125 C5.7675 130.7828125 6.0975 132.4328125 6.4375 134.1328125 C7.0975 134.1328125 7.7575 134.1328125 8.4375 134.1328125 C8.4375 134.7928125 8.4375 135.4528125 8.4375 136.1328125 C9.0975 136.4628125 9.7575 136.7928125 10.4375 137.1328125 C11.0625 139.1953125 11.0625 139.1953125 11.4375 141.1328125 C12.0975 141.1328125 12.7575 141.1328125 13.4375 141.1328125 C13.4375 141.7928125 13.4375 142.4528125 13.4375 143.1328125 C15.0875 143.4628125 16.7375 143.7928125 18.4375 144.1328125 C18.4375 144.7928125 18.4375 145.4528125 18.4375 146.1328125 C19.0975 146.1328125 19.7575 146.1328125 20.4375 146.1328125 C20.4375 146.7928125 20.4375 147.4528125 20.4375 148.1328125 C25.98852998 150.88258884 25.98852998 150.88258884 31.875 150.1328125 C34.6411199 148.35813414 34.6411199 148.35813414 35.3125 145.4453125 C35.35375 144.6821875 35.395 143.9190625 35.4375 143.1328125 C36.0975 143.1328125 36.7575 143.1328125 37.4375 143.1328125 C37.4375 142.4728125 37.4375 141.8128125 37.4375 141.1328125 C38.0975 141.1328125 38.7575 141.1328125 39.4375 141.1328125 C39.63666016 140.17568359 39.63666016 140.17568359 39.83984375 139.19921875 C40.01644531 138.37292969 40.19304687 137.54664063 40.375 136.6953125 C40.54902344 135.87160156 40.72304687 135.04789062 40.90234375 134.19921875 C41.4375 132.1328125 41.4375 132.1328125 42.4375 131.1328125 C42.47830783 129.13322886 42.48004356 127.13235996 42.4375 125.1328125 C43.0975 125.1328125 43.7575 125.1328125 44.4375 125.1328125 C44.51213717 120.29479271 44.56633014 115.45711446 44.60229492 110.61865234 C44.61730136 108.97568924 44.63771312 107.33276564 44.66381836 105.68994141 C44.70056359 103.31663208 44.71730772 100.94385625 44.73046875 98.5703125 C44.74595261 97.84602051 44.76143646 97.12172852 44.77738953 96.37548828 C44.77912829 91.00309879 43.4999876 87.09122259 41.4375 82.1328125 C40.98208187 80.14553337 40.57701466 78.14521043 40.25 76.1328125 C40.09144531 75.1840625 39.93289062 74.2353125 39.76953125 73.2578125 C39.65996094 72.5565625 39.55039063 71.8553125 39.4375 71.1328125 C38.7775 71.1328125 38.1175 71.1328125 37.4375 71.1328125 C37.4375 69.4828125 37.4375 67.8328125 37.4375 66.1328125 C36.7775 66.1328125 36.1175 66.1328125 35.4375 66.1328125 C34.9425 62.6678125 34.9425 62.6678125 34.4375 59.1328125 C33.7775 59.1328125 33.1175 59.1328125 32.4375 59.1328125 C32.4375 57.8128125 32.4375 56.4928125 32.4375 55.1328125 C31.4621803 54.10872682 30.45551357 53.11446844 29.4375 52.1328125 C28.00687361 49.84586135 26.73334324 47.50107773 25.4375 45.1328125 C24.7775 45.1328125 24.1175 45.1328125 23.4375 45.1328125 C22.9425 43.6478125 22.9425 43.6478125 22.4375 42.1328125 C21.7775 42.1328125 21.1175 42.1328125 20.4375 42.1328125 C20.4375 41.4728125 20.4375 40.8128125 20.4375 40.1328125 C19.7775 40.1328125 19.1175 40.1328125 18.4375 40.1328125 C18.1075 39.1428125 17.7775 38.1528125 17.4375 37.1328125 C16.7775 37.1328125 16.1175 37.1328125 15.4375 37.1328125 C15.4375 36.4728125 15.4375 35.8128125 15.4375 35.1328125 C14.1175 35.1328125 12.7975 35.1328125 11.4375 35.1328125 C11.4375 34.4728125 11.4375 33.8128125 11.4375 33.1328125 C8.7975 33.1328125 6.1575 33.1328125 3.4375 33.1328125 Z " fill="#69AEEE" transform="translate(154.5625,-0.1328125)"/>
<path d="M0 0 C1.56621094 -0.00193359 1.56621094 -0.00193359 3.1640625 -0.00390625 C4.78441406 0.00189453 4.78441406 0.00189453 6.4375 0.0078125 C7.51773438 0.00394531 8.59796875 0.00007813 9.7109375 -0.00390625 C10.75507813 -0.00261719 11.79921875 -0.00132813 12.875 0 C13.82246094 0.00112793 14.76992188 0.00225586 15.74609375 0.00341797 C18.40508753 0.13125421 20.84582307 0.54074837 23.4375 1.1328125 C23.4375 1.7928125 23.4375 2.4528125 23.4375 3.1328125 C25.0875 3.4628125 26.7375 3.7928125 28.4375 4.1328125 C28.4375 4.7928125 28.4375 5.4528125 28.4375 6.1328125 C29.4275 6.1328125 30.4175 6.1328125 31.4375 6.1328125 C31.4375 6.7928125 31.4375 7.4528125 31.4375 8.1328125 C32.7575 8.4628125 34.0775 8.7928125 35.4375 9.1328125 C35.9325 11.1128125 35.9325 11.1128125 36.4375 13.1328125 C37.0975 13.1328125 37.7575 13.1328125 38.4375 13.1328125 C38.4375 13.7928125 38.4375 14.4528125 38.4375 15.1328125 C39.4275 15.4628125 40.4175 15.7928125 41.4375 16.1328125 C45.4375 21.38995536 45.4375 21.38995536 45.4375 25.1328125 C46.0975 25.1328125 46.7575 25.1328125 47.4375 25.1328125 C47.9325 29.0928125 47.9325 29.0928125 48.4375 33.1328125 C49.0975 33.1328125 49.7575 33.1328125 50.4375 33.1328125 C50.4375 34.4528125 50.4375 35.7728125 50.4375 37.1328125 C51.0975 37.1328125 51.7575 37.1328125 52.4375 37.1328125 C52.57027344 37.81988281 52.70304687 38.50695313 52.83984375 39.21484375 C53.10474609 40.56642578 53.10474609 40.56642578 53.375 41.9453125 C53.54902344 42.83863281 53.72304688 43.73195312 53.90234375 44.65234375 C54.41491153 47.24678421 54.41491153 47.24678421 55.4375 50.1328125 C55.506491 52.19426357 55.52217727 54.25782651 55.5 56.3203125 C55.49097656 57.40699219 55.48195313 58.49367187 55.47265625 59.61328125 C55.46105469 60.44472656 55.44945312 61.27617188 55.4375 62.1328125 C56.0975 62.1328125 56.7575 62.1328125 57.4375 62.1328125 C57.4375 70.7128125 57.4375 79.2928125 57.4375 88.1328125 C56.7775 88.1328125 56.1175 88.1328125 55.4375 88.1328125 C55.48970703 89.29683594 55.48970703 89.29683594 55.54296875 90.484375 C55.76103394 99.18621464 54.55901122 106.70990782 52.4375 115.1328125 C51.7775 115.1328125 51.1175 115.1328125 50.4375 115.1328125 C50.4375 117.4428125 50.4375 119.7528125 50.4375 122.1328125 C49.7775 122.1328125 49.1175 122.1328125 48.4375 122.1328125 C48.251875 123.9890625 48.251875 123.9890625 48.0625 125.8828125 C47.68003695 129.0090322 47.13200477 131.42160487 45.4375 134.1328125 C44.7775 134.1328125 44.1175 134.1328125 43.4375 134.1328125 C43.1075 136.4428125 42.7775 138.7528125 42.4375 141.1328125 C41.7775 141.1328125 41.1175 141.1328125 40.4375 141.1328125 C40.4375 142.1228125 40.4375 143.1128125 40.4375 144.1328125 C39.7775 144.1328125 39.1175 144.1328125 38.4375 144.1328125 C38.4375 145.4528125 38.4375 146.7728125 38.4375 148.1328125 C37.7775 148.1328125 37.1175 148.1328125 36.4375 148.1328125 C36.1075 149.7828125 35.7775 151.4328125 35.4375 153.1328125 C34.7775 153.1328125 34.1175 153.1328125 33.4375 153.1328125 C33.4375 154.1228125 33.4375 155.1128125 33.4375 156.1328125 C32.7775 156.1328125 32.1175 156.1328125 31.4375 156.1328125 C31.169375 156.7721875 30.90125 157.4115625 30.625 158.0703125 C29.4375 160.1328125 29.4375 160.1328125 26.4375 161.1328125 C26.4375 162.4528125 26.4375 163.7728125 26.4375 165.1328125 C25.0625 166.8828125 25.0625 166.8828125 23.4375 168.1328125 C22.7775 168.1328125 22.1175 168.1328125 21.4375 168.1328125 C21.4375 168.7928125 21.4375 169.4528125 21.4375 170.1328125 C17.05288462 173.1328125 17.05288462 173.1328125 14.4375 173.1328125 C14.4375 173.7928125 14.4375 174.4528125 14.4375 175.1328125 C13.7775 175.1328125 13.1175 175.1328125 12.4375 175.1328125 C12.4375 175.7928125 12.4375 176.4528125 12.4375 177.1328125 C10.4575 177.4628125 8.4775 177.7928125 6.4375 178.1328125 C6.4375 178.7928125 6.4375 179.4528125 6.4375 180.1328125 C5.1175 180.1328125 3.7975 180.1328125 2.4375 180.1328125 C2.4375 180.7928125 2.4375 181.4528125 2.4375 182.1328125 C-1.97164783 183.23509946 -6.04632401 183.20935786 -10.5625 183.1328125 C-10.5625 183.7928125 -10.5625 184.4528125 -10.5625 185.1328125 C-13.5325 185.1328125 -16.5025 185.1328125 -19.5625 185.1328125 C-19.5625 184.4728125 -19.5625 183.8128125 -19.5625 183.1328125 C-20.779375 183.1534375 -21.99625 183.1740625 -23.25 183.1953125 C-26.48227322 183.20105366 -29.41184741 182.92047565 -32.5625 182.1328125 C-32.5625 181.4728125 -32.5625 180.8128125 -32.5625 180.1328125 C-33.2225 180.1328125 -33.8825 180.1328125 -34.5625 180.1328125 C-34.5625 179.4728125 -34.5625 178.8128125 -34.5625 178.1328125 C-36.2125 177.8028125 -37.8625 177.4728125 -39.5625 177.1328125 C-39.5625 176.4728125 -39.5625 175.8128125 -39.5625 175.1328125 C-40.8825 175.1328125 -42.2025 175.1328125 -43.5625 175.1328125 C-44.0575 173.1528125 -44.0575 173.1528125 -44.5625 171.1328125 C-45.8825 170.8028125 -47.2025 170.4728125 -48.5625 170.1328125 C-48.5625 168.8128125 -48.5625 167.4928125 -48.5625 166.1328125 C-49.5525 165.8028125 -50.5425 165.4728125 -51.5625 165.1328125 C-51.5625 164.4728125 -51.5625 163.8128125 -51.5625 163.1328125 C-52.2225 163.1328125 -52.8825 163.1328125 -53.5625 163.1328125 C-56.5625 156.5078125 -56.5625 156.5078125 -56.5625 153.1328125 C-57.2225 153.1328125 -57.8825 153.1328125 -58.5625 153.1328125 C-58.5625 151.4828125 -58.5625 149.8328125 -58.5625 148.1328125 C-59.2225 148.1328125 -59.8825 148.1328125 -60.5625 148.1328125 C-62.57115708 141.62858957 -63.94864349 135.9546808 -63.5625 129.1328125 C-64.2225 129.1328125 -64.8825 129.1328125 -65.5625 129.1328125 C-65.5625 114.9428125 -65.5625 100.7528125 -65.5625 86.1328125 C-64.9025 86.1328125 -64.2425 86.1328125 -63.5625 86.1328125 C-63.624375 85.1015625 -63.68625 84.0703125 -63.75 83.0078125 C-63.78483544 76.57486871 -62.03126321 70.35757087 -60.5625 64.1328125 C-59.9025 64.1328125 -59.2425 64.1328125 -58.5625 64.1328125 C-58.5625 62.4828125 -58.5625 60.8328125 -58.5625 59.1328125 C-57.9025 59.1328125 -57.2425 59.1328125 -56.5625 59.1328125 C-56.2325 56.1628125 -55.9025 53.1928125 -55.5625 50.1328125 C-54.9025 50.1328125 -54.2425 50.1328125 -53.5625 50.1328125 C-53.5625 49.1428125 -53.5625 48.1528125 -53.5625 47.1328125 C-52.9025 47.1328125 -52.2425 47.1328125 -51.5625 47.1328125 C-51.2325 44.8228125 -50.9025 42.5128125 -50.5625 40.1328125 C-49.9025 40.1328125 -49.2425 40.1328125 -48.5625 40.1328125 C-48.5625 39.1428125 -48.5625 38.1528125 -48.5625 37.1328125 C-47.9025 37.1328125 -47.2425 37.1328125 -46.5625 37.1328125 C-46.5625 35.8128125 -46.5625 34.4928125 -46.5625 33.1328125 C-45.5725 32.6378125 -45.5725 32.6378125 -44.5625 32.1328125 C-43.91036708 30.10817995 -43.91036708 30.10817995 -43.5625 28.1328125 C-42.9025 28.1328125 -42.2425 28.1328125 -41.5625 28.1328125 C-41.5625 27.4728125 -41.5625 26.8128125 -41.5625 26.1328125 C-40.9025 26.1328125 -40.2425 26.1328125 -39.5625 26.1328125 C-39.43875 25.2046875 -39.43875 25.2046875 -39.3125 24.2578125 C-38.32424558 21.45775831 -37.15890015 21.39167318 -34.5625 20.1328125 C-33.87981862 18.80760747 -33.2117959 17.47469068 -32.5625 16.1328125 C-31.5725 15.8028125 -30.5825 15.4728125 -29.5625 15.1328125 C-29.5625 14.4728125 -29.5625 13.8128125 -29.5625 13.1328125 C-28.9025 13.1328125 -28.2425 13.1328125 -27.5625 13.1328125 C-27.294375 12.4934375 -27.02625 11.8540625 -26.75 11.1953125 C-25.5625 9.1328125 -25.5625 9.1328125 -22.5625 8.1328125 C-22.2325 7.4728125 -21.9025 6.8128125 -21.5625 6.1328125 C-20.2425 6.1328125 -18.9225 6.1328125 -17.5625 6.1328125 C-17.5625 5.4728125 -17.5625 4.8128125 -17.5625 4.1328125 C-14.0975 3.6378125 -14.0975 3.6378125 -10.5625 3.1328125 C-10.5625 2.4728125 -10.5625 1.8128125 -10.5625 1.1328125 C-6.98132712 0.31469973 -3.67054234 0.00436969 0 0 Z M1.4375 33.1328125 C1.4375 33.7928125 1.4375 34.4528125 1.4375 35.1328125 C0.1175 35.1328125 -1.2025 35.1328125 -2.5625 35.1328125 C-2.5625 35.7928125 -2.5625 36.4528125 -2.5625 37.1328125 C-3.5525 37.4628125 -4.5425 37.7928125 -5.5625 38.1328125 C-5.5625 38.7928125 -5.5625 39.4528125 -5.5625 40.1328125 C-6.2225 40.1328125 -6.8825 40.1328125 -7.5625 40.1328125 C-7.5625 40.7928125 -7.5625 41.4528125 -7.5625 42.1328125 C-8.5525 42.4628125 -9.5425 42.7928125 -10.5625 43.1328125 C-10.5625 43.7928125 -10.5625 44.4528125 -10.5625 45.1328125 C-11.2225 45.1328125 -11.8825 45.1328125 -12.5625 45.1328125 C-14.87842022 48.35395407 -14.87842022 48.35395407 -15.5625 52.1328125 C-16.2225 52.1328125 -16.8825 52.1328125 -17.5625 52.1328125 C-17.5625 53.1228125 -17.5625 54.1128125 -17.5625 55.1328125 C-18.2225 55.1328125 -18.8825 55.1328125 -19.5625 55.1328125 C-19.5625 56.4528125 -19.5625 57.7728125 -19.5625 59.1328125 C-20.2225 59.1328125 -20.8825 59.1328125 -21.5625 59.1328125 C-21.8925 61.4428125 -22.2225 63.7528125 -22.5625 66.1328125 C-23.2225 66.1328125 -23.8825 66.1328125 -24.5625 66.1328125 C-24.5625 67.7828125 -24.5625 69.4328125 -24.5625 71.1328125 C-25.2225 71.1328125 -25.8825 71.1328125 -26.5625 71.1328125 C-26.8925 74.4328125 -27.2225 77.7328125 -27.5625 81.1328125 C-28.2225 81.1328125 -28.8825 81.1328125 -29.5625 81.1328125 C-29.5625 84.1028125 -29.5625 87.0728125 -29.5625 90.1328125 C-30.2225 90.1328125 -30.8825 90.1328125 -31.5625 90.1328125 C-31.5625 101.3528125 -31.5625 112.5728125 -31.5625 124.1328125 C-30.9025 124.1328125 -30.2425 124.1328125 -29.5625 124.1328125 C-29.6553125 125.6178125 -29.6553125 125.6178125 -29.75 127.1328125 C-29.77741645 131.60169461 -28.2833227 135.04585858 -26.5625 139.1328125 C-25.9025 139.1328125 -25.2425 139.1328125 -24.5625 139.1328125 C-24.5625 140.4528125 -24.5625 141.7728125 -24.5625 143.1328125 C-23.9025 143.1328125 -23.2425 143.1328125 -22.5625 143.1328125 C-22.2325 144.7828125 -21.9025 146.4328125 -21.5625 148.1328125 C-19.9125 148.4628125 -18.2625 148.7928125 -16.5625 149.1328125 C-16.5625 149.7928125 -16.5625 150.4528125 -16.5625 151.1328125 C-13.5925 150.1428125 -10.6225 149.1528125 -7.5625 148.1328125 C-7.5625 147.4728125 -7.5625 146.8128125 -7.5625 146.1328125 C-6.9025 146.1328125 -6.2425 146.1328125 -5.5625 146.1328125 C-5.5625 145.4728125 -5.5625 144.8128125 -5.5625 144.1328125 C-3.0875 143.6378125 -3.0875 143.6378125 -0.5625 143.1328125 C-0.5625 142.4728125 -0.5625 141.8128125 -0.5625 141.1328125 C0.0975 141.1328125 0.7575 141.1328125 1.4375 141.1328125 C1.623125 140.17375 1.623125 140.17375 1.8125 139.1953125 C2.01875 138.5146875 2.225 137.8340625 2.4375 137.1328125 C3.0975 136.8028125 3.7575 136.4728125 4.4375 136.1328125 C4.4375 135.4728125 4.4375 134.8128125 4.4375 134.1328125 C5.0975 134.1328125 5.7575 134.1328125 6.4375 134.1328125 C6.7675 132.4828125 7.0975 130.8328125 7.4375 129.1328125 C8.0975 129.1328125 8.7575 129.1328125 9.4375 129.1328125 C10.8981285 126.48542334 11.4375 125.23832916 11.4375 122.1328125 C12.0975 122.1328125 12.7575 122.1328125 13.4375 122.1328125 C13.7675 119.4928125 14.0975 116.8528125 14.4375 114.1328125 C15.0975 114.1328125 15.7575 114.1328125 16.4375 114.1328125 C16.4375 112.8128125 16.4375 111.4928125 16.4375 110.1328125 C17.0975 110.1328125 17.7575 110.1328125 18.4375 110.1328125 C18.7675 105.8428125 19.0975 101.5528125 19.4375 97.1328125 C20.0975 97.1328125 20.7575 97.1328125 21.4375 97.1328125 C21.4375 93.5028125 21.4375 89.8728125 21.4375 86.1328125 C22.0975 86.1328125 22.7575 86.1328125 23.4375 86.1328125 C23.4375 78.8728125 23.4375 71.6128125 23.4375 64.1328125 C22.7775 64.1328125 22.1175 64.1328125 21.4375 64.1328125 C21.4375 61.1628125 21.4375 58.1928125 21.4375 55.1328125 C20.7775 55.1328125 20.1175 55.1328125 19.4375 55.1328125 C19.1075 51.8328125 18.7775 48.5328125 18.4375 45.1328125 C17.7775 45.1328125 17.1175 45.1328125 16.4375 45.1328125 C16.4375 44.1428125 16.4375 43.1528125 16.4375 42.1328125 C15.7775 42.1328125 15.1175 42.1328125 14.4375 42.1328125 C13.9425 39.6578125 13.9425 39.6578125 13.4375 37.1328125 C12.7775 37.1328125 12.1175 37.1328125 11.4375 37.1328125 C11.4375 36.4728125 11.4375 35.8128125 11.4375 35.1328125 C10.7775 35.1328125 10.1175 35.1328125 9.4375 35.1328125 C9.4375 34.4728125 9.4375 33.8128125 9.4375 33.1328125 C6.7975 33.1328125 4.1575 33.1328125 1.4375 33.1328125 Z " fill="#69AFEF" transform="translate(344.5625,-0.1328125)"/>
<path d="M0 0 C4.29 0 8.58 0 13 0 C13 0.66 13 1.32 13 2 C15.31 2 17.62 2 20 2 C20 2.66 20 3.32 20 4 C22.97 4.33 25.94 4.66 29 5 C29 5.66 29 6.32 29 7 C29.99 7 30.98 7 32 7 C32 7.66 32 8.32 32 9 C33.175625 9.4640625 33.175625 9.4640625 34.375 9.9375 C37 11 37 11 39 12 C39 12.66 39 13.32 39 14 C39.66 14 40.32 14 41 14 C41 14.66 41 15.32 41 16 C41.86625 16.0928125 41.86625 16.0928125 42.75 16.1875 C45.92448483 17.33384174 47.12848575 19.25956842 49 22 C49 22.66 49 23.32 49 24 C49.66 24 50.32 24 51 24 C51 24.66 51 25.32 51 26 C51.66 26 52.32 26 53 26 C53.495 28.475 53.495 28.475 54 31 C54.66 31 55.32 31 56 31 C56 31.66 56 32.32 56 33 C56.66 33 57.32 33 58 33 C60.03435531 36.72965139 61 38.66905042 61 43 C61.66 43 62.32 43 63 43 C65.03993514 47.92984325 66.40652968 51.57960425 66 57 C66.66 57 67.32 57 68 57 C68 58.65 68 60.3 68 62 C68.66 62 69.32 62 70 62 C71.05224979 70.21425974 71.1503253 78.35207005 71.125 86.625 C71.12886719 87.89601563 71.13273437 89.16703125 71.13671875 90.4765625 C71.13018991 96.74424987 70.98289772 102.80618423 70 109 C69.34 109 68.68 109 68 109 C68.061875 109.639375 68.12375 110.27875 68.1875 110.9375 C67.92439224 115.23492674 66.47182579 118.97876168 65 123 C64.34 123 63.68 123 63 123 C63 123.99 63 124.98 63 126 C62.34 126 61.68 126 61 126 C60.731875 126.969375 60.46375 127.93875 60.1875 128.9375 C59.795625 129.948125 59.40375 130.95875 59 132 C58.01 132.33 57.02 132.66 56 133 C56 133.66 56 134.32 56 135 C55.34 135 54.68 135 54 135 C53.67 135.99 53.34 136.98 53 138 C52.34 138 51.68 138 51 138 C51 138.66 51 139.32 51 140 C50.34 140 49.68 140 49 140 C48.67 140.99 48.34 141.98 48 143 C45.39757586 144.64820195 44.13751221 145 41 145 C41 145.66 41 146.32 41 147 C39.68 147 38.36 147 37 147 C37 147.66 37 148.32 37 149 C31.97253269 149.82481886 27.0991028 150.15430519 22 150.125 C21.32710937 150.12886719 20.65421875 150.13273438 19.9609375 150.13671875 C15.53110365 150.12816695 11.35658664 149.7147525 7 149 C7 148.34 7 147.68 7 147 C5.35 147 3.7 147 2 147 C2 146.34 2 145.68 2 145 C0.88625 144.814375 0.88625 144.814375 -0.25 144.625 C-2.80141485 144.04513299 -4.7267573 143.26291261 -7 142 C-7 141.34 -7 140.68 -7 140 C-7.66 140 -8.32 140 -9 140 C-9 139.34 -9 138.68 -9 138 C-10.65 137.67 -12.3 137.34 -14 137 C-14 136.34 -14 135.68 -14 135 C-14.66 135 -15.32 135 -16 135 C-17.625 133.625 -17.625 133.625 -19 132 C-19 131.34 -19 130.68 -19 130 C-19.66 130 -20.32 130 -21 130 C-21.33 128.68 -21.66 127.36 -22 126 C-22.66 126 -23.32 126 -24 126 C-24 125.01 -24 124.02 -24 123 C-24.66 123 -25.32 123 -26 123 C-26.495 120.525 -26.495 120.525 -27 118 C-27.66 118 -28.32 118 -29 118 C-29 117.34 -29 116.68 -29 116 C-29.66 116 -30.32 116 -31 116 C-31 115.01 -31 114.02 -31 113 C-31.66 113 -32.32 113 -33 113 C-33.33 110.69 -33.66 108.38 -34 106 C-34.66 106 -35.32 106 -36 106 C-37.905247 100.89665983 -39.42589023 96.53657294 -39 91 C-39.66 91 -40.32 91 -41 91 C-41.8596298 85.77115961 -42.17341642 80.7205619 -42.203125 75.42578125 C-42.20882507 74.62069626 -42.21452515 73.81561127 -42.22039795 72.98612976 C-42.22979697 71.28935031 -42.23636151 69.59255302 -42.24023438 67.89575195 C-42.24990713 65.33706742 -42.28096534 62.77919865 -42.3125 60.22070312 C-42.37865861 49.84125009 -41.30210647 40.90631942 -38 31 C-37.34 31 -36.68 31 -36 31 C-36 30.01 -36 29.02 -36 28 C-35.34 28 -34.68 28 -34 28 C-33.67 25.69 -33.34 23.38 -33 21 C-32.34 21 -31.68 21 -31 21 C-31 20.34 -31 19.68 -31 19 C-30.34 19 -29.68 19 -29 19 C-29 18.34 -29 17.68 -29 17 C-27.625 15.375 -27.625 15.375 -26 14 C-25.34 14 -24.68 14 -24 14 C-24 13.34 -24 12.68 -24 12 C-23.34 12 -22.68 12 -22 12 C-21.67 11.01 -21.34 10.02 -21 9 C-20.34 9 -19.68 9 -19 9 C-19 8.34 -19 7.68 -19 7 C-12.375 4 -12.375 4 -9 4 C-9 3.34 -9 2.68 -9 2 C-6.03 2 -3.06 2 0 2 C0 1.34 0 0.68 0 0 Z M3 34 C3 34.66 3 35.32 3 36 C2.34 36 1.68 36 1 36 C1 36.66 1 37.32 1 38 C0.01 38 -0.98 38 -2 38 C-2 38.99 -2 39.98 -2 41 C-2.66 41 -3.32 41 -4 41 C-4.33 42.65 -4.66 44.3 -5 46 C-5.66 46 -6.32 46 -7 46 C-7 47.65 -7 49.3 -7 51 C-7.66 51 -8.32 51 -9 51 C-9.78118882 60.47041213 -10.16656743 69.52388303 -9 79 C-8.34 79 -7.68 79 -7 79 C-7 81.31 -7 83.62 -7 86 C-6.34 86 -5.68 86 -5 86 C-4.67 88.64 -4.34 91.28 -4 94 C-3.34 94 -2.68 94 -2 94 C-2 94.66 -2 95.32 -2 96 C-1.34 96 -0.68 96 0 96 C0.12375 96.763125 0.2475 97.52625 0.375 98.3125 C0.88102792 101.20267136 0.88102792 101.20267136 3 104 C3.66 104 4.32 104 5 104 C5 104.66 5 105.32 5 106 C5.66 106 6.32 106 7 106 C7.33 106.99 7.66 107.98 8 109 C8.66 109 9.32 109 10 109 C10 109.66 10 110.32 10 111 C10.66 111 11.32 111 12 111 C12 111.66 12 112.32 12 113 C12.99 113 13.98 113 15 113 C15 113.66 15 114.32 15 115 C16.62414378 115.19477739 18.24936423 115.38059458 19.875 115.5625 C20.77992187 115.66691406 21.68484375 115.77132812 22.6171875 115.87890625 C25.01653057 116.19674852 25.01653057 116.19674852 27 115 C27 114.34 27 113.68 27 113 C27.66 113 28.32 113 29 113 C29 112.34 29 111.68 29 111 C29.66 111 30.32 111 31 111 C31.33 109.35 31.66 107.7 32 106 C32.66 106 33.32 106 34 106 C34 105.01 34 104.02 34 103 C34.66 103 35.32 103 36 103 C37.01479818 97.13672162 37.15021794 91.44302718 37.125 85.5 C37.12886719 84.58863281 37.13273437 83.67726562 37.13671875 82.73828125 C37.12947362 77.71740838 36.85647028 72.94849492 36 68 C35.34 68 34.68 68 34 68 C34 66.35 34 64.7 34 63 C33.34 63 32.68 63 32 63 C31.505 59.04 31.505 59.04 31 55 C30.34 55 29.68 55 29 55 C29 54.34 29 53.68 29 53 C28.34 53 27.68 53 27 53 C26.87625 52.401875 26.7525 51.80375 26.625 51.1875 C26.04524015 48.73768652 26.04524015 48.73768652 24 46 C23.34 46 22.68 46 22 46 C22 45.01 22 44.02 22 43 C21.34 43 20.68 43 20 43 C20 42.34 20 41.68 20 41 C19.01 41 18.02 41 17 41 C17 40.34 17 39.68 17 39 C14.69723426 36.78252188 13.47519908 36.03239994 10.25 35.8125 C9.5075 35.874375 8.765 35.93625 8 36 C8 35.34 8 34.68 8 34 C6.35 34 4.7 34 3 34 Z " fill="#69AEEE" transform="translate(42,144)"/>
<path d="M0 0 C4.29 0 8.58 0 13 0 C13 0.66 13 1.32 13 2 C15.97 2 18.94 2 22 2 C22 2.66 22 3.32 22 4 C22.9075 4.12375 23.815 4.2475 24.75 4.375 C27.58970323 4.92109677 29.52590591 5.57263803 32 7 C32 7.66 32 8.32 32 9 C32.99 9.33 33.98 9.66 35 10 C35 10.66 35 11.32 35 12 C35.66 12 36.32 12 37 12 C37 12.66 37 13.32 37 14 C37.66 14 38.32 14 39 14 C40.625 15.375 40.625 15.375 42 17 C42 17.66 42 18.32 42 19 C42.66 19 43.32 19 44 19 C44 19.66 44 20.32 44 21 C44.66 21 45.32 21 46 21 C46.495 24.465 46.495 24.465 47 28 C47.66 28 48.32 28 49 28 C49 28.99 49 29.98 49 31 C49.66 31 50.32 31 51 31 C51.495 35.455 51.495 35.455 52 40 C52.66 40 53.32 40 54 40 C54.98759099 44.93942606 55.14584563 49.64136415 55.1328125 54.65234375 C55.13376923 55.47070206 55.13472595 56.28906036 55.13571167 57.13221741 C55.13638947 58.85596799 55.13456316 60.57972118 55.13037109 62.3034668 C55.12502411 64.92567753 55.13032613 67.54771646 55.13671875 70.16992188 C55.13605776 71.85156287 55.13477618 73.53320377 55.1328125 75.21484375 C55.13483673 75.99109604 55.13686096 76.76734833 55.13894653 77.56712341 C55.11946816 82.14538059 54.75271723 86.48257538 54 91 C53.34 91 52.68 91 52 91 C51.67 94.3 51.34 97.6 51 101 C50.34 101 49.68 101 49 101 C49 102.65 49 104.3 49 106 C48.34 106 47.68 106 47 106 C46.814375 107.36125 46.814375 107.36125 46.625 108.75 C46.07890323 111.58970323 45.42736197 113.52590591 44 116 C43.34 116 42.68 116 42 116 C42 116.66 42 117.32 42 118 C41.34 118 40.68 118 40 118 C39.67 119.65 39.34 121.3 39 123 C38.34 123 37.68 123 37 123 C37 123.99 37 124.98 37 126 C36.34 126 35.68 126 35 126 C34.67 127.32 34.34 128.64 34 130 C33.34 130 32.68 130 32 130 C32 130.66 32 131.32 32 132 C30.625 133.625 30.625 133.625 29 135 C28.34 135 27.68 135 27 135 C27 135.66 27 136.32 27 137 C25.35 137.33 23.7 137.66 22 138 C22 138.66 22 139.32 22 140 C21.34 140 20.68 140 20 140 C20 140.66 20 141.32 20 142 C16.63316085 144.43160605 15.26649636 145 11 145 C11 145.66 11 146.32 11 147 C9.35 147 7.7 147 6 147 C6 147.66 6 148.32 6 149 C0.97253269 149.82481886 -3.9008972 150.15430519 -9 150.125 C-9.67289062 150.12886719 -10.34578125 150.13273438 -11.0390625 150.13671875 C-15.46889635 150.12816695 -19.64341336 149.7147525 -24 149 C-24 148.34 -24 147.68 -24 147 C-25.32 147 -26.64 147 -28 147 C-28 146.34 -28 145.68 -28 145 C-28.94875 144.9175 -29.8975 144.835 -30.875 144.75 C-34 144 -34 144 -35.375 141.9375 C-35.58125 141.298125 -35.7875 140.65875 -36 140 C-36.66 140 -37.32 140 -38 140 C-38 139.34 -38 138.68 -38 138 C-38.99 137.67 -39.98 137.34 -41 137 C-41 136.34 -41 135.68 -41 135 C-41.66 135 -42.32 135 -43 135 C-43 134.34 -43 133.68 -43 133 C-43.9590625 132.6596875 -43.9590625 132.6596875 -44.9375 132.3125 C-47 131 -47 131 -47.75 128.375 C-47.8325 127.59125 -47.915 126.8075 -48 126 C-48.66 126 -49.32 126 -50 126 C-50 125.01 -50 124.02 -50 123 C-50.66 123 -51.32 123 -52 123 C-55.44419134 113.58997722 -55.44419134 113.58997722 -55 109 C-55.66 109 -56.32 109 -57 109 C-58.1834411 101.54244261 -58.14793708 94.16365467 -58.125 86.625 C-58.12886719 85.36171875 -58.13273437 84.0984375 -58.13671875 82.796875 C-58.12944709 75.80153364 -57.88921266 68.94153025 -57 62 C-56.34 62 -55.68 62 -55 62 C-55 60.35 -55 58.7 -55 57 C-54.34 57 -53.68 57 -53 57 C-52.95101563 56.32453125 -52.90203125 55.6490625 -52.8515625 54.953125 C-52.77679688 54.06109375 -52.70203125 53.1690625 -52.625 52.25 C-52.55539062 51.36828125 -52.48578125 50.4865625 -52.4140625 49.578125 C-52.00149945 47.00933618 -51.28839043 45.24158985 -50 43 C-49.34 43 -48.68 43 -48 43 C-47.87625 42.0925 -47.7525 41.185 -47.625 40.25 C-47.07890323 37.41029677 -46.42736197 35.47409409 -45 33 C-44.34 33 -43.68 33 -43 33 C-43 32.34 -43 31.68 -43 31 C-42.34 31 -41.68 31 -41 31 C-40.67 29.35 -40.34 27.7 -40 26 C-39.34 26 -38.68 26 -38 26 C-38 25.34 -38 24.68 -38 24 C-37.34 24 -36.68 24 -36 24 C-35.731875 23.236875 -35.46375 22.47375 -35.1875 21.6875 C-34.04204753 19.09516021 -33.23584819 17.69924463 -31 16 C-30.01 16 -29.02 16 -28 16 C-28 15.34 -28 14.68 -28 14 C-27.34 14 -26.68 14 -26 14 C-26 13.34 -26 12.68 -26 12 C-21.61538462 9 -21.61538462 9 -19 9 C-19 8.34 -19 7.68 -19 7 C-18.01 7 -17.02 7 -16 7 C-16 6.34 -16 5.68 -16 5 C-11.545 4.505 -11.545 4.505 -7 4 C-7 3.34 -7 2.68 -7 2 C-4.69 2 -2.38 2 0 2 C0 1.34 0 0.68 0 0 Z M1 36 C1 36.66 1 37.32 1 38 C-0.65 38.33 -2.3 38.66 -4 39 C-4 39.66 -4 40.32 -4 41 C-4.99 41 -5.98 41 -7 41 C-7 41.66 -7 42.32 -7 43 C-7.66 43 -8.32 43 -9 43 C-9 43.66 -9 44.32 -9 45 C-9.66 45 -10.32 45 -11 45 C-13.04169485 47.90548882 -14 49.40142046 -14 53 C-14.66 53 -15.32 53 -16 53 C-16 53.66 -16 54.32 -16 55 C-16.66 55 -17.32 55 -18 55 C-18.33 57.64 -18.66 60.28 -19 63 C-19.66 63 -20.32 63 -21 63 C-21 64.65 -21 66.3 -21 68 C-21.66 68 -22.32 68 -23 68 C-24.01479818 73.86327838 -24.15021794 79.55697282 -24.125 85.5 C-24.12886719 86.41136719 -24.13273437 87.32273438 -24.13671875 88.26171875 C-24.12947362 93.28259162 -23.85647028 98.05150508 -23 103 C-22.34 103 -21.68 103 -21 103 C-21 103.99 -21 104.98 -21 106 C-20.34 106 -19.68 106 -19 106 C-18.67 107.65 -18.34 109.3 -18 111 C-17.34 111 -16.68 111 -16 111 C-16 111.66 -16 112.32 -16 113 C-15.34 113 -14.68 113 -14 113 C-14 113.66 -14 114.32 -14 115 C-11.37684968 116.31157516 -9.76966564 115.89649988 -6.875 115.5625 C-5.96492188 115.46066406 -5.05484375 115.35882813 -4.1171875 115.25390625 C-3.41851562 115.17011719 -2.71984375 115.08632813 -2 115 C-2 114.34 -2 113.68 -2 113 C-1.01 113 -0.02 113 1 113 C1 112.34 1 111.68 1 111 C1.66 111 2.32 111 3 111 C3 110.34 3 109.68 3 109 C4.485 108.505 4.485 108.505 6 108 C6 107.34 6 106.68 6 106 C6.66 106 7.32 106 8 106 C8 105.34 8 104.68 8 104 C8.99 103.67 9.98 103.34 11 103 C11.69937532 101.68352881 12.36729133 100.34977849 13 99 C13.66 98.67 14.32 98.34 15 98 C15 96.68 15 95.36 15 94 C15.66 94 16.32 94 17 94 C17.33 91.36 17.66 88.72 18 86 C18.66 86 19.32 86 20 86 C20 83.69 20 81.38 20 79 C20.66 79 21.32 79 22 79 C22.78118882 69.52958787 23.16656743 60.47611697 22 51 C21.34 51 20.68 51 20 51 C20 49.35 20 47.7 20 46 C19.34 46 18.68 46 18 46 C17.505 43.525 17.505 43.525 17 41 C16.34 41 15.68 41 15 41 C15 40.01 15 39.02 15 38 C14.01 38 13.02 38 12 38 C12 37.34 12 36.68 12 36 C11.34 36 10.68 36 10 36 C10 35.34 10 34.68 10 34 C6.37471432 33.79859524 4.13498292 34.14223235 1 36 Z " fill="#69AFEE" transform="translate(457,144)"/>
</svg>
